<?xml version="1.0" standalone="no"?>
<!DOCTYPE svg PUBLIC "-//W3C//DTD SVG 20010904//EN"
 "http://www.w3.org/TR/2001/REC-SVG-20010904/DTD/svg10.dtd">
<svg version="1.0" xmlns="http://www.w3.org/2000/svg"
 width="250.000000pt" height="250.000000pt" viewBox="0 0 250.000000 250.000000"
 preserveAspectRatio="xMidYMid meet">
<metadata>
Created by potrace 1.14, written by Peter Selinger 2001-2017
</metadata>
<g transform="translate(0.000000,250.000000) scale(0.100000,-0.100000)"
fill="#000000" stroke="none">
<path d="M780 2169 c-88 -16 -105 -21 -162 -50 -70 -35 -143 -107 -181 -177
-52 -96 -54 -120 -54 -620 0 -255 4 -485 8 -510 28 -150 174 -306 314 -336 17
-3 41 -9 55 -13 34 -8 917 -8 960 1 154 30 273 123 335 261 12 28 26 70 31 95
4 25 8 248 9 495 2 495 -1 525 -60 634 -32 58 -117 141 -174 171 -102 51 -125
54 -601 55 -245 0 -461 -3 -480 -6z m940 -161 c75 -18 149 -80 192 -161 23
-42 23 -43 23 -527 0 -471 -1 -486 -21 -531 -31 -66 -78 -114 -142 -146 l-56
-27 -466 0 c-256 0 -476 3 -490 6 -99 23 -184 104 -211 202 -12 44 -17 888 -5
959 18 111 114 206 227 225 40 7 920 7 949 0z"/>
<path d="M1194 1874 c-108 -22 -198 -83 -255 -173 -26 -40 -32 -44 -73 -47
-57 -3 -139 -47 -177 -93 -63 -76 -75 -191 -30 -284 24 -49 90 -114 127 -123
14 -4 22 -13 22 -27 0 -12 7 -60 16 -107 9 -47 24 -123 32 -169 8 -47 19 -90
24 -95 8 -11 694 -16 704 -5 4 4 21 88 53 276 l16 91 39 18 c52 24 112 93 128
148 14 51 9 116 -12 167 -17 39 -80 105 -108 114 -11 4 -25 27 -35 59 -57 182
-265 293 -471 250z m219 -969 c-3 -9 -8 -14 -10 -11 -3 3 -2 9 2 15 9 16 15
13 8 -4z m-158 -4 c3 -5 2 -12 -3 -15 -5 -3 -9 1 -9 9 0 17 3 19 12 6z"/>
</g>
</svg>
